<?xml version="1.0" encoding="UTF-8"?>
<svg width="317px" height="233px" viewBox="0 0 317 233" version="1.1" xmlns="http://www.w3.org/2000/svg" xmlns:xlink="http://www.w3.org/1999/xlink">
    <!-- Generator: Sketch 48.2 (47327) - http://www.bohemiancoding.com/sketch -->
    <title>Artboard Copy 7</title>
    <desc>Created with Sketch.</desc>
    <defs>
        <linearGradient x1="97.6564749%" y1="18.9168121%" x2="0%" y2="50%" id="linearGradient-1">
            <stop stop-color="#216684" offset="0%"></stop>
            <stop stop-color="#203A43" offset="49.7021476%"></stop>
            <stop stop-color="#0F2027" offset="100%"></stop>
        </linearGradient>
        <path d="M149.836538,150.503521 C149.725253,152.99935 149.58651,155.506444 149.420311,158.024806 C148.926042,165.514277 148.247373,172.21786 147.384302,178.135554 L141.135077,183.531975 L132.670838,186.232231 L134.496414,174.125408 L132.184838,174.125408 L131.659211,176.988434 L125.120754,182.496702 L116.119956,184.9037 L116.340833,182.523751 L113.224451,186.177217 L103.775003,185.261067 L104.320852,181.473905 L85.4051023,186.650923 C85.8187992,184.326513 86.1943542,181.999799 86.5317676,179.670783 L77.6576489,188.553126 C74.8853169,200.905731 70.5203138,210.07192 64.5626396,216.051692 C55.6261282,225.02135 44.7768626,233.372605 41.3878311,232.987158 C37.9987996,232.60171 19.1641198,229.793245 9.49967769,214.21651 C-0.164764436,198.639775 -0.623769118,188.077377 0.35443181,173.972863 C1.33263274,159.868349 7.67738686,144.975723 17.4439083,134.960401 C27.2104296,124.945079 41.5265181,115.61 55.8165588,116.075911 C63.0455223,116.311603 69.6067285,118.257346 75.0778916,121.85933 L54.5152318,101.642553 L79.1024415,72.2401921 L51.9574136,20.099805 L84.754738,2.63822172 L99.6165245,0 L107.971728,34.6614692 L126.504426,8.31224373 L143.828799,5.20263139 L159.881545,20.099805 L104.472234,112.611471 L78.3764383,124.347062 C82.2063447,127.64056 85.3432096,131.901221 87.596649,137.104784 C78.4144434,145.017184 70.2611264,152.7279 58.5569795,155.64692 C53.6073688,146.200852 50.7092521,142.854117 43.2607386,144.483385 C35.8122251,146.112653 26.3146274,160.756024 28.2247498,176.919618 C30.1348722,193.083211 35.0917121,196.138089 42.1137012,202.207756 C42.4245981,201.202472 43.0151154,200.013146 43.8852531,198.639775 L37.9987996,199.872014 L33.3411693,182.091866 L49.1694389,171.770856 L82.1959521,159.088318 L86.982307,176.384856 C87.4676438,172.632941 87.8541811,168.875062 88.1419191,165.111217 C88.6924771,157.909475 88.8846842,150.6419 88.7185402,143.308491 L96.1670723,138.30325 L103.775003,136.227249 L102.518781,171.920737 L105.134164,170.84318 C105.708769,166.451785 106.096233,162.061387 106.296557,157.671986 C106.49688,153.282584 106.49688,149.18302 106.296557,145.373293 L112.641433,140.213299 L121.517884,137.683087 L121.274322,142.615057 L125.120754,139.909128 L134.496414,136.415481 L133.147273,164.485143 L135.500298,164.485143 L136.828942,143.540538 L143.243507,138.469203 L150.174591,135.855333 C150.172176,137.905669 150.150553,139.963887 150.109721,142.029987 L160.033745,137.076054 L165.872281,136.272355 L169.300005,149.978143 L176.882072,139.356273 L183.705897,138.14044 L189.506415,143.945794 L167.833416,181.237532 L157.332996,186.234654 L147.743399,176.705545 L157.76044,165.080648 L149.836538,150.503521 Z M141.424493,76.1636551 L149.508825,71.4160289 L160.985419,67.7304519 L164.35681,81.308635 L164.35681,77.4355275 L170.038671,73.3019192 L181.506554,69.4840123 L177.958279,115.187739 L171.341246,120.920648 L160.985419,124.349505 L155.642553,110.157312 L156.403114,121.481727 L150.26825,125.672805 L139.138984,119.390158 L139.169406,118.563792 L132.64505,125.396046 L123.628159,121.010255 L126.931751,76.5095962 L132.301888,71.6160362 L141.66194,67.9947336 L141.424493,76.1636551 Z M178.023666,51.8295802 L215.503244,33.2001109 L298.695684,6.71786997 L317,43.7759046 L225.655703,150.107707 L267.808504,129.222961 C286.132122,121.17254 300.973951,115.860088 312.333992,113.285605 C309.60871,121.010335 304.18929,137.358339 296.07573,162.329618 L270.605841,181.092258 L202.510159,195.624316 L178.023666,170.185745 C179.632543,164.280489 184.586202,154.443476 192.884645,140.674704 C201.183087,126.905932 216.506172,103.7339 238.853899,71.1586076 L206.400045,91.9835973 L178.023666,51.8295802 Z" id="path-2"></path>
        <linearGradient x1="100%" y1="22.6591338%" x2="0%" y2="84.891461%" id="linearGradient-4">
            <stop stop-color="#FFDC60" offset="0%"></stop>
            <stop stop-color="#E6A400" offset="100%"></stop>
        </linearGradient>
    </defs>
    <g id="graffitti" stroke="none" stroke-width="1" fill="none" fill-rule="evenodd">
        <g id="Artboard-Copy-7">
            <g id="logo">
                <mask id="mask-3" fill="white">
                    <use xlink:href="#path-2"></use>
                </mask>
                <use id="Combined-Shape" fill="url(#linearGradient-1)" fill-rule="nonzero" xlink:href="#path-2"></use>
                <path d="M182.854148,145.053801 L175.737315,138.61656 L183.433666,136.493464 L189.784729,143.398392 L168.277372,181.70664 L156.414175,186.468373 L182.854148,145.053801 Z M144.915421,139.585953 L135.887434,143.345925 L142.105129,136.874865 L150.011112,135.2029 L150.466282,140.803589 L149.635931,141.751436 L146.197313,143.808515 L149.440923,150.14701 L152.310669,163.49807 L147.267182,176.37293 L147.497581,179.951351 L140.839888,183.60103 C142.12744,174.241841 142.987342,167.228118 143.419595,162.559861 C143.851847,157.891603 144.350456,150.233634 144.915421,139.585953 Z M134.256946,135.951583 L133.326888,163.715904 L133.443995,163.633814 L135.07805,164.119387 L134.805233,167.47531 L127.0855,168.090974 L128.503419,139.958389 L118.069321,143.655626 L118.005385,143.703145 C118.250781,150.187143 118.250781,156.175158 118.005385,161.667191 C117.75999,167.159224 117.070938,173.993959 115.938229,182.171396 L112.760802,186.610435 L115.432766,141.209386 L105.336401,145.090105 L110.718273,139.022738 L121.786177,136.723947 L121.728723,140.252182 L124.099513,138.057142 L134.256946,135.951583 Z M96.0248381,176.408705 L97.8253849,139.803828 L86.5386562,143.463696 L96.0248381,136.290737 L103.879184,135.510582 L103.388035,170.463025 L103.391428,170.460285 L104.716719,170.460285 L104.327222,172.14698 L96.0248381,176.408705 Z M78.0975108,187.846228 C78.4394723,187.781289 78.7892597,187.716481 79.146873,187.651805 C76.8307341,202.415478 72.5344647,213.152694 66.2580648,219.863455 C59.9816649,226.574215 51.1401671,231.286397 39.7335713,234 C48.7329877,225.986943 55.1613734,218.262244 59.0187284,210.825902 C64.804761,199.671391 67.333076,193.33667 68.2750861,190.685542 C69.8934837,189.76111 72.9308166,188.860443 77.3870848,187.983541 L72.2906251,167.008134 L83.2897754,157.615004 L86.7738548,174.508455 L85.9214019,181.407983 L78.0975108,187.846228 Z M32.191702,182.01084 L48.0248717,168.055212 L83.1363534,157.727226 L72.2906251,167.008134 L32.1928171,182.01616 C34.2407147,191.785922 36.4480441,196.94573 37.1465531,197.875024 C37.2680027,198.355724 37.4297673,198.904226 37.6318471,199.52053 L39.3321898,199.169821 L41.7959958,201.793714 C40.3205398,204.503552 38.4140352,207.457877 36.0764821,210.656689 C25.0530841,205.971893 18.9218171,195.796487 19.2105466,182.725926 C19.499276,169.655365 26.1062129,155.354107 33.2611353,149.030574 C40.4160577,142.707041 46.0072565,142.259019 49.0419173,144.149212 C51.0650245,145.40934 51.8053144,148.591091 51.2627869,153.694466 C36.1869995,158.714994 29.4177774,165.932027 30.9551205,175.345564 C31.3505978,177.76717 31.7677265,179.987806 32.191702,182.01084 Z M87.50708,136.651417 C89.5572,136.100359 91.7269695,135.485697 94.0163885,134.807431 L66.8769119,157.086216 L56.5807128,156.256568 C62.0541569,152.961585 68.1323217,147.382636 74.8152071,139.51972 C69.2320014,128.73149 62.8196736,119.505314 44.6206408,120.763838 C32.4879522,121.602853 19.9477386,128.352078 7,141.011512 L21.4935945,112.693322 L62.8987508,114.823757 C68.5347018,117.616683 72.4523405,119.839215 74.6516671,121.491353 C75.0506738,121.880167 76.2156984,122.969782 77.4233022,124.380651 C77.4370276,124.370304 77.4507455,124.360116 77.4644334,124.350089 L143.232985,23.3930465 L122.834075,5.29042749 L140.910193,-0.365169146 L162.888287,19.266541 L131.516704,67.8436629 L132.078638,67.1584148 L142.394707,66.2325974 L141.039042,75.4108418 L146.285533,68.6254705 L162.401876,66.2049454 L161.798035,66.6154224 L164.3606,71.9967579 L163.93634,76.6053766 L167.754171,69.8934501 L184.60117,67.1645629 L184.937803,66.9610352 L181.477969,114.482557 L171.213438,121.977889 L174.311373,73.3857668 L163.890422,77.1041708 L163.773866,78.3702755 L163.910953,81.0119543 L161.780875,100.019559 C160.045835,94.9422953 158.775331,90.6641818 157.969362,87.1852185 C157.163393,83.7062553 156.206072,78.367969 155.097401,71.1703597 L140.209747,76.4992927 L140.202583,76.5055717 L138.760074,118.211502 L132.078638,126.508003 L136.707985,71.7077581 L126.196149,76.0941881 L107.329929,116.723343 L80.3346665,125.480946 C83.1196915,127.208235 87.8574985,130.123045 94.5480876,134.225376 C92.1198898,135.144785 89.7728873,135.953465 87.50708,136.651417 Z M291.972362,125.914366 L225.219116,149.739261 L277.405775,117.769957 L314.683526,109.882519 L308.489317,160.846858 L268.400618,183.27347 L291.972362,125.914366 Z M281.18989,17.8283628 L169.745779,53.9198294 L202.852963,32.4867673 L304.175679,2.45850509 L303.438587,2.95137461 L323.674303,40.5614856 L324,40.4274138 L323.768573,40.736696 L323.831728,40.8540765 L323.616825,40.9394931 L260.593639,125.164372 L225.139978,149.791034 L298.625895,50.8725431 L281.18989,17.8283628 Z M96.6295098,49.5284127 L82.2497299,-4.16273299 L102.615966,-10 L107.658259,34.3077117 L96.6295098,49.5284127 Z M150.608484,126.747234 C149.229988,122.367935 148.54074,117.966391 148.54074,113.542601 C148.54074,109.118811 148.985136,101.971863 149.873928,92.1017562 L156.273119,113.542601 L158.035035,123.680782 L150.608484,126.747234 Z M124.642683,182.8012 L126.17475,174.432071 C128.965608,174.04618 130.832777,173.824099 131.776256,173.76583 C132.539508,174.281476 132.597182,175.80396 131.949278,178.333284 L124.642683,182.8012 Z M164.372995,155.70964 L159.110181,136.177489 L166.159214,134.812709 L169.305494,148.77877 L164.372995,155.70964 Z" id="Combined-Shape" fill="url(#linearGradient-4)" mask="url(#mask-3)"></path>
            </g>
        </g>
    </g>
</svg>